Motion_mu01
version=1
nRows=16
nColumns=43
inDegrees=yes
endheader
time	pelvis_tilt	pelvis_list	pelvis_rotation	pelvis_tx	pelvis_ty	pelvis_tz	hip_flexion_r	hip_adduction_r	hip_rotation_r	knee_angle_r	ankle_angle_r	subtalar_angle_r	mtp_angle_r	hip_flexion_l	hip_adduction_l	hip_rotation_l	knee_angle_l	ankle_angle_l	subtalar_angle_l	mtp_angle_l	lumbar_extension	lumbar_bending	lumbar_rotation	neck_flexion	neck_lateral_bending	neck_rotation	arm_flex_r	arm_add_r	arm_rot_r	elbow_flex_r	pro_sup_r	wrist_flex_r	wrist_dev_r	hand_finger_flex_r	arm_flex_l	arm_add_l	arm_rot_l	elbow_flex_l	pro_sup_l	wrist_flex_l	wrist_dev_l	hand_finger_flex_l
      1.12500000	      0.10127634	    -30.16099455	    -94.79161037	     -0.02938949	      1.05965283	      1.53520976	     -1.95479277	    -12.09904616	    -10.58364480	    -92.58109462	     -5.68947542	    -25.89844370	    -13.22164694	     -5.09748836	    -11.65014204	    -22.20525525	    -78.71689115	      0.22520652	    -24.06974512	      0.46681519	     12.37327847	     -0.35853195	      3.99550689	    -18.43443151	     -1.07853182	     -7.77294771	    -56.96664465	   -156.24025270	   -167.13731251	     55.55600157	    123.54926111	     54.45574055	     11.99869846	     81.41713474	    127.14350126	    -16.56597862	     12.33476957	     52.12731474	    135.76945023	     55.21646312	      9.49718352	     78.50725953
      1.12750000	      0.12157867	    -30.46109068	    -94.75794008	     -0.02934630	      1.06067280	      1.53472690	     -1.44206793	    -12.07726442	    -10.48275691	    -93.48830799	     -5.58203303	    -25.93524194	    -13.18422306	     -4.75984684	    -11.73381315	    -22.08296766	    -79.46269230	      0.11058227	    -23.88908416	      0.55560933	     12.07128007	     -0.45262115	      3.94350020	    -18.27312731	     -1.02810565	     -7.85087188	    -57.24180184	   -156.18989940	   -167.39662390	     55.83301817	    123.60031333	     54.42275598	     11.95651717	     81.47312876	    127.02258934	    -16.55459477	     12.23628304	     52.33307479	    135.77664807	     55.30097600	      9.49380856	     78.47209340
      1.13000000	      0.11925842	    -30.84988840	    -94.71476956	     -0.02916124	      1.06196113	      1.53434990	     -1.06960023	    -12.13831769	    -10.51989334	    -94.34597770	     -5.50487573	    -25.97419595	    -13.16075701	     -4.57774425	    -11.86493698	    -22.07844561	    -80.15955880	      0.09498928	    -23.83182885	      0.59393413	     11.70769960	     -0.50777805	      3.92530301	    -18.37090458	     -1.09290609	     -7.85316027	    -57.47942632	   -156.09730207	   -167.50094122	     56.06731536	    123.59428485	     54.42252821	     11.92876789	     81.49768539	    126.89378062	    -16.54106544	     12.22087901	     52.44797979	    135.76201108	     55.37265235	      9.48688004	     78.46457895
      1.13250000	      0.30346783	    -30.19718790	    -94.53305772	     -0.02925997	      1.06136049	      1.53390322	      0.68617398	    -12.14138508	    -10.38183937	    -95.57608646	     -5.23156199	    -25.70282839	    -12.97538211	     -2.91257422	    -11.92820479	    -21.69721685	    -81.34844454	      0.23347498	    -22.96545332	      1.13146958	     12.44264397	     -0.74629097	      3.67688730	    -18.15683965	     -0.91159005	     -7.69223949	    -58.02821320	   -156.14725604	   -168.01188568	     56.49030171	    124.07014140	     54.31355601	     11.90192710	     81.70956901	    126.76436815	    -16.45308159	     11.96215838	     52.73803845	    136.14077890	     55.96893197	      9.81754418	     78.19419791
      1.13500000	      0.30514271	    -30.64826978	    -94.49159311	     -0.02906887	      1.06274325	      1.53338558	      1.00490571	    -12.16481945	    -10.39360054	    -96.42564725	     -5.15198155	    -25.75930594	    -12.95480557	     -2.74677167	    -12.02955988	    -21.68060901	    -82.09238998	      0.20944675	    -22.97095151	      1.16153496	     12.01027594	     -0.79284163	      3.69292257	    -18.24809174	     -0.95717558	     -7.73406350	    -58.26044958	   -156.06169810	   -168.11519356	     56.74179560	    124.02177980	     54.31682995	     11.84937980	     81.73083309	    126.59284183	    -16.45040053	     11.92647927	     52.85502073	    136.07029417	     56.03254266	      9.77003153	     78.17807239
      1.13750000	      0.31733907	    -31.08997248	    -94.45703003	     -0.02892954	      1.06388611	      1.53249256	      1.42948100	    -12.16668440	    -10.32148170	    -97.33332578	     -5.03591094	    -25.80030565	    -12.92898735	     -2.47867269	    -12.11965044	    -21.60204482	    -82.95875892	      0.13769960	    -22.89643342	      1.19874058	     11.51982680	     -0.87122341	      3.67583031	    -18.19710955	     -0.96528518	     -7.80939741	    -58.48596893	   -155.98068897	   -168.30228186	     57.03685951	    123.99639731	     54.30008347	     11.81496736	     81.75818599	    126.48287041	    -16.44792115	     11.84647312	     53.05135477	    136.00205333	     56.09156822	      9.73212141	     78.15624875
      1.14000000	      0.50270276	    -30.46123634	    -94.23245671	     -0.02885333	      1.06306971	      1.53180633	      3.21267200	    -12.21320767	    -10.21427625	    -98.60275727	     -4.52566058	    -25.23726226	    -12.81008000	     -0.72996686	    -12.17070177	    -21.16293565	    -84.26226704	      0.19123787	    -22.05188637	      1.76859113	     12.15702713	     -1.10201464	      3.36298077	    -17.72895119	     -0.84452733	     -7.70229847	    -58.91568532	   -156.08970138	   -168.76528234	     57.39640575	    124.42034553	     54.15968858	     11.81931588	     81.96468955	    126.39244707	    -16.43200846	     11.60083348	     53.42731783	    136.29053271	     56.60096530	     10.08995469	     77.75281304
      1.14250000	      0.50929729	    -30.94275434	    -94.19049860	     -0.02865997	      1.06439395	      1.53099143	      3.57295709	    -12.26322175	    -10.22670231	    -99.46958573	     -4.41637839	    -25.29205719	    -12.79280023	     -0.52941136	    -12.29180446	    -21.17184016	    -85.10500371	      0.18944217	    -22.06383077	      1.80809830	     11.66757164	     -1.15862565	      3.37537950	    -17.82642850	     -0.89059879	     -7.73979664	    -59.16522973	   -156.00314605	   -168.91291622	     57.66931553	    124.37553573	     54.15547416	     11.77489978	     81.98997740	    126.21216565	    -16.42818810	     11.56128146	     53.58081309	    136.21456812	     56.65707833	     10.04436595	     77.73455588
      1.14500000	      0.56049214	    -31.27184161	    -94.15694852	     -0.02878951	      1.06504414	      1.52975380	      4.25553030	    -12.19762334	    -10.05326639	   -100.50333418	     -4.14157258	    -25.24097003	    -12.75621349	      0.00065339	    -12.34121939	    -20.98607739	    -86.11774272	      0.05324551	    -21.82677824	      1.92328192	     11.21973953	     -1.30233506	      3.27286385	    -17.30828712	     -0.76267606	     -7.87046704	    -59.42570617	   -156.03347812	   -169.32218088	     58.00319442	    124.43907169	     54.07014569	     11.78346081	     82.04852661	    126.10356942	    -16.45490264	     11.35623346	     53.98219681	    136.17413152	     56.65434226	     10.04556315	     77.65812359
      1.14750000	      0.73179255	    -30.84251653	    -93.88557121	     -0.02843867	      1.06462349	      1.52898948	      5.78664406	    -12.37210008	    -10.09515970	   -101.70429890	     -3.53529896	    -24.53254328	    -12.70027097	      1.49418568	    -12.43103426	    -20.71161907	    -87.36932986	      0.27175355	    -21.18777152	      2.50417756	     11.69194631	     -1.47734671	      3.01041307	    -17.25271774	     -0.86089852	     -7.55251353	    -59.81873397	   -156.14483131	   -169.60858701	     58.31953073	    124.84807202	     53.92379210	     11.84421377	     82.25168056	    125.83065834	    -16.51295457	     11.21069958	     54.43088247	    136.53950839	     56.77460355	     10.40594854	     77.42023904
      1.15000000	      0.75382245	    -31.28702010	    -93.85209537	     -0.02841527	      1.06560377	      1.52775208	      6.33348596	    -12.35622534	    -10.01029642	   -102.67892238	     -3.35724139	    -24.55532975	    -12.67686733	      1.86955397	    -12.50498368	    -20.62457254	    -88.33279531	      0.23664635	    -21.14346436	      2.60403839	     11.17637874	     -1.57007930	      2.99782635	    -17.07288300	     -0.82776670	     -7.64941712	    -60.08003509	   -156.10614904	   -169.90164490	     58.63174456	    124.83692489	     53.88295850	     11.80656096	     82.30458706	    125.64752418	    -16.49240581	     11.07623738	     54.70342222	    136.46033202	     56.77863916	     10.35271274	     77.40039989
      1.15250000	      0.88306782	    -31.09138533	    -93.67383716	     -0.02812048	      1.06540880	      1.52672494	      7.68199953	    -12.50650339	     -9.97822434	   -103.85143849	     -2.92065737	    -24.04146541	    -12.59535597	      3.11173271	    -12.58897373	    -20.43225138	    -89.56879141	      0.34472497	    -20.69851473	      3.11099266	     11.35785823	     -1.70165192	      2.85100635	    -16.88354190	     -0.91898692	     -7.40107826	    -60.36813702	   -156.17458328	   -170.13935484	     58.91857027	    125.14104224	     53.77019688	     11.84177909	     82.48910767	    125.35204199	    -16.51413854	     10.87157837	     55.16706560	    136.83041357	     56.65025842	     10.57320553	     77.35989914
      1.15500000	      0.88786822	    -31.62880340	    -93.61761303	     -0.02797967	      1.06664095	      1.52546317	      8.12604469	    -12.57491997	    -10.00036307	   -104.77445833	     -2.81414505	    -24.07843770	    -12.57166370	      3.36334140	    -12.74206256	    -20.45252470	    -90.51075530	      0.37832930	    -20.71696865	      3.15359791	     10.77823200	     -1.76516043	      2.88562168	    -16.96129581	     -0.99385916	     -7.41834619	    -60.60931601	   -156.07275799	   -170.32024783	     59.20529307	    125.10329529	     53.76116296	     11.81248119	     82.51579829	    125.14269443	    -16.48376216	     10.84021782	     55.34795259	    136.77272562	     56.68092891	     10.52634743	     77.37444340
      1.15750000	      1.01109758	    -31.41369370	    -93.49758130	     -0.02785890	      1.06608774	      1.52409960	      9.65167310	    -12.62302905	     -9.80807914	   -106.04204436	     -2.43825764	    -23.54489269	    -12.38385264	      4.72611667	    -12.78888633	    -20.19548620	    -91.84014681	      0.46006714	    -20.17500358	      3.58826029	     10.88831180	     -1.90533000	      2.74811497	    -16.39405173	     -0.98965430	     -7.22476780	    -60.82561076	   -156.14927727	   -170.60305159	     59.50725586	    125.38669586	     53.66948776	     11.88919098	     82.67151679	    124.88269815	    -16.46593740	     10.45031482	     55.91327244	    137.22655248	     56.39881679	     10.69139607	     77.48733163
      1.16000000	      1.03197945	    -31.87052758	    -93.45259856	     -0.02787030	      1.06698020	      1.52253811	     10.31324298	    -12.59871531	     -9.70834613	   -107.04576738	     -2.31199119	    -23.52271505	    -12.31935169	      5.17038427	    -12.90447800	    -20.13259575	    -92.86389480	      0.46074381	    -20.11888120	      3.67716723	     10.32309165	     -2.00678519	      2.73874236	    -16.14947974	     -0.94058421	     -7.33629827	    -61.07513286	   -156.07692830	   -170.91707938	     59.86056027	    125.37012451	     53.63568170	     11.86395900	     82.71722147	    124.68963265	    -16.42703404	     10.26309750	     56.21919519	    137.17817743	     56.37456444	     10.61175223	     77.53661066
      1.16250000	      1.04562432	    -32.40219949	    -93.39517630	     -0.02772627	      1.06813861	      1.52107391	     10.84029411	    -12.69888783	     -9.74733161	   -107.96449056	     -2.22824368	    -23.51060179	    -12.28338163	      5.50447367	    -13.08045295	    -20.17666955	    -93.87879240	      0.49900243	    -20.09846678	      3.71785272	      9.72434967	     -2.06731763	      2.78230971	    -16.22124088	     -1.05010866	     -7.30469384	    -61.28785855	   -155.96095850	   -171.04619068	     60.14913760	    125.34877580	     53.63313395	     11.84634740	     82.73935242	    124.50425041	    -16.39234328	     10.23253251	     56.39331595	    137.17343506	     56.39247442	     10.59588737	     77.55864448
